<svg width="20" height="16" viewBox="0 0 20 16" fill="none" xmlns="http://www.w3.org/2000/svg">
<path fillRule="evenodd" clipRule="evenodd" d="M0.169135 0.330102C0.447052 -0.0367478 0.969738 -0.108843 1.33659 0.169074L19.6698 14.0579C20.0367 14.3358 20.1088 14.8585 19.8309 15.2254C19.5529 15.5922 19.0303 15.6643 18.6634 15.3864L15.6931 13.1362C14.151 14.4305 12.1906 15.5555 10 15.5555C7.73954 15.5555 5.72658 14.3572 4.17156 13.0213C2.60263 11.6734 1.39249 10.0933 0.723563 9.13112C0.71267 9.11546 0.701661 9.09969 0.690569 9.08382C0.529287 8.85293 0.35069 8.59725 0.263514 8.24561C0.192667 7.95983 0.192667 7.59562 0.263514 7.30985C0.350689 6.9582 0.529288 6.70253 0.690567 6.47164C0.701659 6.45576 0.712669 6.44 0.723562 6.42433C1.22675 5.70057 2.03412 4.63016 3.06832 3.57191L0.330163 1.49755C-0.0366868 1.21964 -0.108781 0.696952 0.169135 0.330102ZM4.40835 4.58709C3.39173 5.60229 2.5888 6.66114 2.092 7.37572C1.98952 7.52312 1.94134 7.59357 1.90902 7.64965C1.88801 7.68612 1.88423 7.69881 1.88175 7.70868C1.88152 7.70997 1.8806 7.7152 1.87961 7.72458C1.87809 7.73898 1.87704 7.75734 1.87704 7.77773C1.87704 7.79812 1.87809 7.81647 1.87961 7.83087C1.8806 7.84025 1.88152 7.84548 1.88175 7.84677C1.88423 7.85665 1.88801 7.86933 1.90902 7.9058C1.94134 7.96188 1.98952 8.03233 2.092 8.17974C2.7216 9.08532 3.83924 10.5385 5.25764 11.7571C6.68994 12.9876 8.32383 13.8888 10 13.8888C11.5196 13.8888 13.0022 13.1478 14.3261 12.1006L12.0694 10.3909C11.5013 10.8412 10.7821 11.111 10 11.111C8.15906 11.111 6.66669 9.61867 6.66669 7.77773C6.66669 7.32282 6.75817 6.88842 6.92367 6.49264L4.40835 4.58709ZM8.34606 7.57021C8.33767 7.63814 8.33334 7.70739 8.33334 7.77773C8.33334 8.6982 9.07953 9.44439 10 9.44439C10.2297 9.44439 10.4486 9.39806 10.6478 9.31398L8.34606 7.57021ZM10 1.66664C9.32789 1.66664 8.66178 1.81088 8.0079 2.0669C7.57934 2.2347 7.0959 2.02331 6.9281 1.59476C6.7603 1.1662 6.97169 0.682763 7.40024 0.514964C8.21385 0.196397 9.08642 -1.50508e-05 10 -1.50508e-05C12.2605 -1.50508e-05 14.2734 1.19825 15.8284 2.53417C17.3974 3.88204 18.6075 5.46217 19.2764 6.42433C19.2873 6.44 19.2983 6.45576 19.3094 6.47164C19.4707 6.70253 19.6493 6.9582 19.7365 7.30985C19.8073 7.59562 19.8073 7.95983 19.7365 8.24561C19.6493 8.59725 19.4707 8.85294 19.3094 9.08381C19.2983 9.09969 19.2873 9.11545 19.2764 9.13112C19.1518 9.31034 19.0092 9.50997 18.8496 9.72474C18.5751 10.0942 18.0531 10.1712 17.6837 9.89668C17.3143 9.6222 17.2373 9.10021 17.5118 8.73078C17.6602 8.53106 17.7926 8.34569 17.908 8.17974C18.0105 8.03234 18.0587 7.96188 18.091 7.90581C18.112 7.86932 18.1158 7.85663 18.1183 7.84676C18.1185 7.84545 18.1194 7.84022 18.1204 7.83087C18.1219 7.81647 18.123 7.79812 18.123 7.77773C18.123 7.75734 18.1219 7.73898 18.1204 7.72458C18.1194 7.7152 18.1185 7.70997 18.1183 7.70868C18.1158 7.6988 18.112 7.68612 18.091 7.64965C18.0587 7.59357 18.0105 7.52312 17.908 7.37572C17.2784 6.47014 16.1608 5.01691 14.7424 3.79836C13.3101 2.56787 11.6762 1.66664 10 1.66664Z" fill="black"/>
</svg>
