<svg width="20" height="16" viewBox="0 0 20 16" fill="none" xmlns="http://www.w3.org/2000/svg">
<path fillRule="evenodd" clipRule="evenodd" d="M5.12621 3.80458C3.6734 5.02406 2.52916 6.47786 1.88494 7.38322C1.78001 7.53068 1.73076 7.60105 1.69778 7.65697C1.67718 7.6919 1.67327 7.70419 1.6711 7.71256C1.67084 7.71403 1.67005 7.71868 1.66919 7.72666C1.66772 7.74036 1.66667 7.75803 1.66667 7.77778C1.66667 7.79753 1.66772 7.8152 1.66919 7.8289C1.67005 7.83688 1.67084 7.84152 1.6711 7.84299C1.67327 7.85137 1.67718 7.86365 1.69778 7.89859C1.73076 7.95451 1.78001 8.02488 1.88494 8.17234C2.52916 9.0777 3.6734 10.5315 5.12621 11.751C6.5919 12.9813 8.27102 13.8889 10 13.8889C11.729 13.8889 13.4081 12.9813 14.8738 11.751C16.3266 10.5315 17.4708 9.0777 18.1151 8.17234C18.22 8.02488 18.2692 7.95451 18.3022 7.89859C18.3228 7.86365 18.3267 7.85136 18.3289 7.84299C18.3292 7.84151 18.33 7.83687 18.3308 7.8289C18.3323 7.8152 18.3333 7.79753 18.3333 7.77778C18.3333 7.75803 18.3323 7.74036 18.3308 7.72666C18.33 7.71869 18.3292 7.71404 18.3289 7.71257C18.3267 7.70419 18.3228 7.69191 18.3022 7.65697C18.2692 7.60105 18.22 7.53068 18.1151 7.38321C17.4708 6.47786 16.3266 5.02406 14.8738 3.80458C13.4081 2.57429 11.729 1.66667 10 1.66667C8.27102 1.66667 6.5919 2.57429 5.12621 3.80458ZM4.05468 2.52802C5.64649 1.19187 7.69987 0 10 0C12.3001 0 14.3535 1.19187 15.9453 2.52802C17.55 3.87497 18.7882 5.45454 19.473 6.41693C19.4843 6.43273 19.4956 6.44863 19.5071 6.46466C19.6717 6.69483 19.8553 6.95161 19.9451 7.30547C20.0183 7.59406 20.0183 7.9615 19.9451 8.25009C19.8553 8.60395 19.6717 8.86072 19.5071 9.09089C19.4956 9.10693 19.4843 9.12283 19.473 9.13863C18.7882 10.101 17.55 11.6806 15.9453 13.0275C14.3535 14.3637 12.3001 15.5556 10 15.5556C7.69987 15.5556 5.64649 14.3637 4.05468 13.0275C2.45001 11.6806 1.21178 10.101 0.526973 9.13863C0.515733 9.12283 0.504363 9.10693 0.4929 9.0909C0.328314 8.86073 0.144704 8.60395 0.0549185 8.25009C-0.0183062 7.9615 -0.0183062 7.59406 0.0549185 7.30547C0.144704 6.95161 0.328314 6.69483 0.4929 6.46466C0.504362 6.44863 0.515733 6.43273 0.526973 6.41693C1.21178 5.45454 2.45001 3.87497 4.05468 2.52802ZM10 6.11111C9.07953 6.11111 8.33333 6.8573 8.33333 7.77778C8.33333 8.69825 9.07953 9.44445 10 9.44445C10.9205 9.44445 11.6667 8.69825 11.6667 7.77778C11.6667 6.8573 10.9205 6.11111 10 6.11111ZM6.66667 7.77778C6.66667 5.93683 8.15905 4.44445 10 4.44445C11.841 4.44445 13.3333 5.93683 13.3333 7.77778C13.3333 9.61873 11.841 11.1111 10 11.1111C8.15905 11.1111 6.66667 9.61873 6.66667 7.77778Z" fill="black"/>
</svg>
